<svg version="1.0" xmlns="http://www.w3.org/2000/svg"
     width="400" height="396.000000pt" viewBox="0 0 630.000000 396.000000"
     preserveAspectRatio="xMidYMid meet">

<g transform="translate(0.000000,396.000000) scale(0.100000,-0.100000)"
   fill="#5CE1E6" stroke="none">
    <path d="M170 2112 l0 -578 228 -77 c125 -41 345 -116 490 -165 257 -88 263
-90 305 -77 23 7 166 56 317 108 151 52 353 120 448 152 l172 59 0 578 0 578
-980 0 -980 0 0 -578z m1661 269 c109 -42 164 -101 184 -198 l7 -33 -146 0
c-135 0 -145 1 -151 20 -16 50 -111 79 -166 50 -23 -13 -26 -62 -5 -79 8 -7
68 -23 133 -36 65 -14 147 -35 183 -47 120 -42 180 -131 167 -252 -17 -166
-159 -256 -407 -256 -239 0 -391 91 -416 249 l-7 41 151 0 151 0 16 -34 c9
-18 27 -39 40 -46 38 -20 111 -17 143 7 59 44 30 83 -79 107 -190 41 -222 51
-276 81 -36 19 -70 48 -88 74 -27 39 -30 50 -30 120 0 68 3 83 27 119 33 49
96 94 163 115 76 24 91 26 225 23 99 -3 137 -8 181 -25z m-1219 -250 c3 -245
4 -261 24 -288 44 -60 144 -49 181 19 15 29 18 65 21 281 l4 247 154 0 154 0
0 -410 0 -410 -150 0 -150 0 0 46 0 45 -42 -34 c-72 -58 -105 -70 -201 -75
-66 -3 -98 0 -132 12 -65 25 -122 71 -147 118 -22 42 -23 52 -26 376 l-3 332
155 0 154 0 4 -259z"/>
    <path d="M2250 2130 l0 -560 150 0 150 0 0 46 0 46 40 -38 c56 -54 92 -66 190
-68 74 -1 92 3 142 27 128 63 208 216 208 398 0 143 -34 249 -106 328 -45 51
-89 75 -166 90 -99 21 -188 -2 -258 -65 l-40 -36 0 196 0 196 -155 0 -155 0 0
-560z m532 11 c50 -56 61 -208 20 -290 -25 -51 -65 -76 -117 -75 -90 2 -134
66 -135 194 0 95 13 142 50 179 49 49 134 45 182 -8z"/>
    <path d="M5080 2130 l0 -560 155 0 155 0 0 123 c0 117 1 123 25 146 19 17 28
21 38 12 8 -6 47 -71 88 -146 l74 -135 182 0 c101 0 183 2 183 6 0 3 -49 78
-108 167 -60 89 -135 202 -167 250 l-57 88 68 72 c38 40 100 105 139 145 38
40 72 77 73 82 2 6 -62 10 -165 10 l-168 0 -80 -96 c-44 -52 -90 -107 -102
-122 l-23 -27 0 273 0 272 -155 0 -155 0 0 -560z"/>
    <path d="M3491 2400 c-170 -24 -263 -96 -286 -222 l-7 -38 140 0 140 0 11 29
c17 38 53 56 118 56 48 0 58 -4 79 -28 30 -35 30 -59 2 -92 -24 -26 -22 -26
-236 -60 -155 -25 -213 -55 -260 -135 -35 -59 -37 -164 -4 -227 46 -88 127
-127 267 -127 105 0 161 16 222 64 35 27 41 25 45 -12 l3 -33 157 -3 157 -3
-17 38 c-13 32 -17 87 -22 333 -4 263 -7 299 -24 333 -41 82 -138 123 -312
131 -60 2 -138 1 -173 -4z m219 -507 c-1 -69 -31 -130 -74 -148 -48 -20 -85
-19 -122 4 -66 41 -47 113 37 140 24 7 67 22 94 31 28 10 53 18 58 19 4 0 7
-20 7 -46z"/>
    <path d="M4600 2397 c-64 -14 -119 -46 -154 -88 l-25 -29 -3 52 -3 53 -147 3
-148 3 0 -411 0 -410 155 0 155 0 0 245 c0 269 5 296 60 329 35 20 99 21 127
1 36 -25 43 -77 43 -332 l0 -243 150 0 150 0 0 313 c0 357 -4 382 -72 448 -65
63 -182 90 -288 66z"/>
    <path d="M6063 1635 c0 -22 2 -30 4 -17 2 12 2 30 0 40 -3 9 -5 -1 -4 -23z"/>
    <path d="M6092 1641 c-11 -7 -11 -9 0 -14 9 -3 15 1 15 9 0 8 -1 14 -1 14 -1
0 -7 -4 -14 -9z"/>
    <path d="M6020 1606 c0 -2 8 -10 18 -17 15 -13 16 -12 3 4 -13 16 -21 21 -21
13z"/>
</g>
</svg>
